<?xml version="1.0" encoding="UTF-8"?>
<svg width="32px" height="29px" viewBox="0 0 32 29" version="1.1" xmlns="http://www.w3.org/2000/svg" xmlns:xlink="http://www.w3.org/1999/xlink">
    <!-- Generator: Sketch 45.2 (43514) - http://www.bohemiancoding.com/sketch -->
    <title>shoppingCart-1</title>
    <desc>Created with Sketch.</desc>
    <defs></defs>
    <g id="Page-1" stroke="none" stroke-width="1" fill="none" fill-rule="evenodd">
        <g id="shoppingCart-1">
            <g id="shoppingCart-Copy" fill-rule="nonzero" fill="#979797">
                <path d="M30.4532021,4.03991968 C29.8824992,3.44007826 29.1035488,3.11099887 28.2496132,3.11099887 L8.94636667,3.11099887 C8.33401425,3.11099887 7.82998279,3.57753772 7.82998279,4.14824064 C7.82998279,4.71894357 8.32985737,5.18548241 8.94636667,5.18548241 L28.2454563,5.18548241 C28.4537441,5.18548241 28.63701,5.26046764 28.7828235,5.41043808 C29.003582,5.6437075 29.107746,6.02694737 29.0660965,6.37685151 L27.3082218,15.724377 C27.2457475,16.186759 26.7792087,16.5908236 26.2251736,16.5949805 L11.1041492,17.6322222 C10.495994,17.6780286 10.033612,18.1695894 10.0752615,18.7444492 C10.116911,19.2901302 10.6084718,19.7067058 11.1874885,19.7067058 C11.2124701,19.7067058 11.2458059,19.7067058 11.2749847,19.698392 L26.3168671,18.6695044 C27.9247714,18.6695044 29.3327421,17.4906463 29.524362,16.0368692 L31.2822368,6.68934375 C31.4030284,5.68543771 31.1072847,4.7273784 30.4532828,4.04004076 L30.4532021,4.03991968 Z" id="Shape"></path>
                <path d="M27.8955522,21.7811086 L9.78783163,21.7811086 C9.3171359,21.7811086 8.84639982,21.377044 8.78392559,20.8938373 L6.88443447,8.45960845 L5.81389732,2.69446363 C5.61812051,1.18652613 4.18932512,0.00351114875 2.56475291,0.00351114875 L1.14431163,0.00351114875 C0.531959215,0.00351114875 0.0279277579,0.470049995 0.0279277579,1.04075292 C0.0279277579,1.61145585 0.527802338,2.07799469 1.14431163,2.07799469 L2.56475291,2.07799469 C3.04795962,2.07799469 3.54367733,2.48621618 3.61030844,2.99440452 L4.68504282,8.78453096 L6.57622018,21.1687562 C6.771997,22.6766937 8.18412452,23.8597087 9.79202886,23.8597087 L27.8955926,23.8597087 C28.5162587,23.8597087 29.0119764,23.3931698 29.0119764,22.8224669 C29.0119764,22.2434502 28.5162587,21.7810683 27.8955926,21.7810683 L27.8955522,21.7811086 Z" id="Shape"></path>
                <path d="M8.07160633,26.9672367 C8.07160633,26.9672367 8.07160633,26.9672367 8.07160633,26.9672367 C8.07160633,28.076114 8.97054113,28.9750488 10.0794184,28.9750488 C11.1882957,28.9750488 12.0872305,28.076114 12.0872305,26.9672367 C12.0872305,26.9672367 12.0872305,26.9672367 12.0872305,26.9672367 C12.0872305,26.9672367 12.0872305,26.9672367 12.0872305,26.9672367 C12.0872305,25.8583595 11.1882957,24.9594247 10.0794184,24.9594247 C8.97054113,24.9594247 8.07160633,25.8583595 8.07160633,26.9672367 C8.07160633,28.076114 8.07160633,26.9672367 8.07160633,26.9672367 Z" id="Shape"></path>
                <path d="M23.6799944,26.9672367 C23.6799944,26.9672367 23.6799944,26.9672367 23.6799944,26.9672367 C23.6799944,28.076114 24.5789292,28.9750488 25.6878064,28.9750488 C26.7966837,28.9750488 27.6956185,28.076114 27.6956185,26.9672367 C27.6956185,26.9672367 27.6956185,26.9672367 27.6956185,26.9672367 C27.6956185,26.9672367 27.6956185,26.9672367 27.6956185,26.9672367 C27.6956185,25.8583595 26.7966837,24.9594247 25.6878064,24.9594247 C24.5789292,24.9594247 23.6799944,25.8583595 23.6799944,26.9672367 C23.6799944,28.076114 23.6799944,26.9672367 23.6799944,26.9672367 Z" id="Shape"></path>
            </g>
            <circle id="Oval-6" fill="#E58A8A" cx="13.6608837" cy="14.3881564" r="2.02452008"></circle>
        </g>
    </g>
</svg>